<?xml version="1.0" encoding="UTF-8" standalone="no"?>
<!-- Created with Inkscape (http://www.inkscape.org/) -->
<svg xmlns:dc="http://purl.org/dc/elements/1.1/" xmlns:cc="http://web.resource.org/cc/" xmlns:rdf="http://www.w3.org/1999/02/22-rdf-syntax-ns#" xmlns:svg="http://www.w3.org/2000/svg" xmlns="http://www.w3.org/2000/svg" xmlns:xlink="http://www.w3.org/1999/xlink" xmlns:sodipodi="http://sodipodi.sourceforge.net/DTD/sodipodi-0.dtd" xmlns:inkscape="http://www.inkscape.org/namespaces/inkscape" id="svg2" sodipodi:version="0.32" inkscape:version="0.45.1" width="720" height="400" version="1.0" sodipodi:docbase="D:\" sodipodi:docname="aniaugen.svg" inkscape:output_extension="org.inkscape.output.svg.inkscape">
  <metadata id="metadata7">
    <rdf:RDF>
      <cc:Work rdf:about="">
        <dc:format>image/svg+xml</dc:format>
        <dc:type rdf:resource="http://purl.org/dc/dcmitype/StillImage"/>
      </cc:Work>
    </rdf:RDF>
  </metadata>
  <defs id="defs5">
    <linearGradient id="linearGradient16801">
      <stop style="stop-color:#353d54;stop-opacity:1;" offset="0" id="stop16803"/>
      <stop style="stop-color:#246373;stop-opacity:1;" offset="1" id="stop16805"/>
    </linearGradient>
    <linearGradient id="linearGradient16789">
      <stop style="stop-color:#353d55;stop-opacity:1;" offset="0" id="stop16791"/>
      <stop style="stop-color:#286d70;stop-opacity:1;" offset="1" id="stop16793"/>
    </linearGradient>
    <linearGradient inkscape:collect="always" xlink:href="#linearGradient16801" id="linearGradient17786" x1="204.87776" y1="219.7711" x2="207.95757" y2="315.61359" gradientUnits="userSpaceOnUse" gradientTransform="matrix(1.1476051,0,0,1.1530219,-70.502133,-49.063338)"/>
    <linearGradient inkscape:collect="always" xlink:href="#linearGradient16801" id="linearGradient13844" x1="533.47028" y1="215.43398" x2="530.81775" y2="312.5162" gradientUnits="userSpaceOnUse" gradientTransform="matrix(1.1476051,0,0,1.1530219,-70.502133,-49.063338)"/>
  </defs>
  <sodipodi:namedview inkscape:window-height="968" inkscape:window-width="1280" inkscape:pageshadow="2" inkscape:pageopacity="0.0" guidetolerance="10.0" gridtolerance="10.0" objecttolerance="10.0" borderopacity="1.0" bordercolor="#666666" pagecolor="#ffffff" id="base" inkscape:zoom="0.9425" inkscape:cx="518.46605" inkscape:cy="124.47251" inkscape:window-x="0" inkscape:window-y="22" inkscape:current-layer="svg2"/>
  <path style="fill:#e4e9e3;fill-opacity:1;fill-rule:evenodd;stroke:none;stroke-width:1px;stroke-linecap:butt;stroke-linejoin:miter;stroke-opacity:1" d="M 444.85436,259.37741 C 444.75329,267.60183 446.86376,278.34042 450.02924,286.29145 C 452.58453,292.70965 454.14731,297.93897 456.26961,304.3361 C 457.71126,308.68148 459.60351,313.64982 463.42301,321.46319 C 469.61041,321.7159 476.91643,321.25337 485.03569,322.07486 C 493.62367,322.94382 508.46398,324.76534 518.21584,325.74505 C 534.77941,327.40913 553.17165,330.07761 569.96468,331.09713 C 583.74347,331.93381 599.50333,333.20665 611.97237,332.47343 C 616.10639,329.56586 625.08691,323.13506 633.90886,316.38386 C 642.73069,309.63261 650.9667,301.95717 653.24844,299.60322 C 654.92191,286.60105 656.05765,280.16921 657.17642,268.55275 C 662.37512,228.02642 663.40537,184.22241 626.27939,158.90863 C 590.81612,149.36801 511.08567,169.03503 476.36031,202.79686 C 446.27157,230.48914 445.1679,233.74459 444.85436,259.37741 z " id="path7028" sodipodi:nodetypes="csscssscsccccs"/>
  <path style="fill:#a2a1a6;fill-opacity:1;fill-rule:evenodd;stroke:none;stroke-width:1px;stroke-linecap:butt;stroke-linejoin:miter;stroke-opacity:1" d="M 445.76757,215.48922 C 444.97262,220.36264 445.03218,225.2435 444.85437,233.38095 C 444.78789,236.45314 444.82366,241.16958 444.99739,252.17272 C 455.0408,243.26627 461.83566,238.38232 469.81552,233.228 C 492.84032,218.35588 530.43288,200.52157 566.92053,187.35184 C 588.87283,179.22443 605.29683,171.53573 623.99631,188.57524 C 628.06871,192.2861 635.57759,201.19431 639.06443,205.54935 C 644.49665,212.33439 651.91848,222.27381 658.69852,234.60462 C 658.40146,225.55095 658.0129,216.21641 656.41533,208.14901 C 653.15943,191.70606 649.16533,176.79634 640.43414,163.49631 C 629.66954,147.0984 622.74461,134.37512 587.1635,141.93448 C 574.72931,144.57632 564.0435,148.32453 552.30913,152.94477 C 533.30523,160.42704 520.32263,166.27378 503.6044,175.88272 C 481.33636,184.43055 464.59252,200.33366 445.76757,215.48922 z " id="path10906" sodipodi:nodetypes="cscscsscsssscc"/>
  <path style="fill:#000000;fill-opacity:1;fill-rule:evenodd;stroke:none;stroke-width:1px;stroke-linecap:butt;stroke-linejoin:miter;stroke-opacity:1" d="M 461.90098,321.76906 C 464.07174,322.78571 470.56593,321.88212 479.40428,322.68654 C 489.63173,323.61736 507.29538,326.24195 533.58831,328.9563 C 559.88115,331.67059 571.48215,332.83155 589.29425,334.30854 C 595.9473,334.86023 608.66834,334.91566 611.05922,334.61443 C 614.06998,334.23504 624.11043,327.50366 632.21527,321.0047 C 645.41074,309.36276 647.44434,306.37785 654.89347,299.2899 C 653.75862,297.09871 652.99901,298.86176 646.9789,304.3361 C 640.73856,309.7265 638.95024,310.94995 631.60643,316.72266 C 623.70771,322.9923 617.67828,327.54526 611.05922,330.33262 C 605.71084,331.13327 603.31173,330.96425 591.72951,330.33262 C 603.03309,319.06399 606.5473,315.10978 615.01641,293.47873 C 619.28316,279.66967 622.47389,266.16744 623.083,251.73138 C 623.80837,231.04401 622.93071,210.16727 619.12595,189.79861 C 617.83621,178.86302 613.18821,170.11162 605.88416,162.27285 C 596.28841,152.02884 589.83471,148.66837 582.14084,145.29871 C 588.0386,142.50783 591.65772,141.24833 597.36104,140.86396 C 599.87129,140.69486 602.00313,141.39922 607.40631,144.07535 C 612.80948,146.75156 613.57044,147.28656 618.97375,151.56847 C 627.16852,157.49276 633.18773,165.70546 637.99893,174.50646 C 646.76201,195.5247 651.99067,209.40442 657.93742,232.46348 C 659.41403,240.90875 659.39549,245.26723 660.26501,253.11858 C 661.78597,247.87353 662.82094,243.65641 663.11232,234.7572 C 663.49995,222.91229 663.68308,219.96223 662.95998,208.14901 C 661.9923,201.89715 661.39973,198.94921 660.22046,193.31575 C 662.88401,199.43255 663.49292,201.6879 665.24316,207.69022 C 666.18104,211.88696 667.08335,214.99836 668.43938,221.30016 C 671.02057,207.85868 667.20401,193.08468 661.28594,181.08217 C 655.92073,170.37768 652.38203,165.29305 645.30467,155.23857 C 638.86279,147.07896 635.30157,143.75068 627.49689,137.04093 C 636.15979,135.53323 640.66242,134.67584 652.45818,135.97051 C 652.79875,132.49585 641.97532,129.98068 627.95359,130.15953 C 612.75917,130.35333 595.63904,134.30657 581.22749,138.41726 C 566.94322,142.49171 564.44725,143.80768 554.43991,147.43957 C 541.21287,152.2142 528.36796,158.00605 515.62832,163.95508 C 503.52687,169.60598 496.14615,173.332 485.4923,181.3879 C 474.88347,189.41009 469.26747,192.99868 459.3136,201.87929 C 446.34059,213.45358 444.16816,215.8023 444.34779,219.98716 C 448.7901,214.57939 455.53215,208.62584 460.98782,204.17307 C 465.24348,200.51402 469.45112,197.31358 476.8168,193.77452 C 470.93622,207.47303 471.33145,223.17598 471.4898,237.81563 C 471.66984,254.46007 471.15519,269.4277 473.01177,285.9854 C 474.38106,298.19772 475.21111,306.05878 480.01303,320.54548 C 476.72503,320.48037 472.02205,320.55096 466.88186,320.52077 C 463.34429,320.40148 461.97721,320.77511 461.90098,321.76906 z " id="path11877" sodipodi:nodetypes="csssscccccccccccssccccsccccccccsscssscccssccc"/>
  <path style="fill:#e4e9e3;fill-opacity:1;fill-rule:evenodd;stroke:none;stroke-width:1px;stroke-linecap:butt;stroke-linejoin:miter;stroke-opacity:1" d="M 69.40799,289.09183 C 71.252327,294.29399 74.738297,302.64463 79.739832,307.90654 C 85.387287,313.84829 92.075151,319.94135 97.605264,323.91007 C 103.62839,328.23262 117.12186,332.20306 124.72636,333.20941 C 133.23962,334.33585 153.04288,333.64196 167.77552,332.56056 C 181.54546,331.54991 204.19347,329.87815 217.71277,328.66785 C 238.35789,326.81946 243.51892,325.80095 247.41683,324.55877 C 250.5951,323.54607 255.4222,317.09823 259.90099,305.09532 C 262.94915,296.92621 266.1887,286.18704 267.0041,277.41356 C 267.86513,268.14983 269.34748,259.01073 268.83382,249.19142 C 224.33782,192.35359 90.530688,154.75364 59.72192,242.37921 C 57.815309,258.37926 64.119719,274.17584 69.40799,289.09183 z " id="path4114" sodipodi:nodetypes="cssssssssccs"/>
  <path style="fill:#a2a1a6;fill-opacity:1;fill-rule:evenodd;stroke:none;stroke-width:1px;stroke-linecap:butt;stroke-linejoin:miter;stroke-opacity:1" d="M 63.596352,273.08842 C 58.777827,253.66081 56.433463,241.27214 54.986498,225.29438 C 54.080105,215.28585 54.420178,202.00775 56.062715,192.20629 C 57.820288,181.71838 60.453854,176.51984 64.026841,167.55243 C 68.030404,157.50418 72.355053,151.32861 76.941623,147.87249 C 81.248133,144.62741 123.47159,152.47913 128.81579,153.71159 C 156.06652,159.99537 175.90844,166.0632 211.47064,182.04198 C 230.57424,190.05822 254.38933,206.16753 269.15685,220.96924 C 269.28696,234.56513 268.83755,237.79767 268.94141,249.29956 C 256.45691,240.43397 249.7289,236.83913 238.37632,231.78256 C 205.62127,217.19196 177.67197,213.98798 142.16129,207.12843 C 128.64709,204.51788 100.31212,196.92488 90.502134,206.91205 C 80.480403,217.1149 75.874513,226.09324 70.699475,240.6491 C 68.83933,245.88113 66.367843,252.97775 63.596352,273.08842 z " id="path5085" sodipodi:nodetypes="cssssscccssssc"/>
  <path style="fill:#000000;fill-opacity:1;fill-rule:evenodd;stroke:none;stroke-width:1px;stroke-linecap:butt;stroke-linejoin:miter;stroke-opacity:1" d="M 270.20246,218.7006 C 266.49227,214.74377 262.66848,211.36039 258.86329,208.30197 C 255.05826,205.24351 236.94628,193.00994 231.31474,189.64571 C 225.6833,186.28139 201.33095,174.65956 201.33095,174.65956 C 201.33095,174.65956 154.75697,156.61494 140.14563,152.79179 C 125.53428,148.96885 121.88132,148.05125 110.61844,146.36916 C 99.355477,144.68701 79.264788,143.15784 63.740181,143.00482 C 48.215536,142.85196 25.84183,141.47574 24.776419,142.24033 C 23.710995,143.00482 26.907245,143.61664 28.885881,143.92241 C 30.864498,144.22835 39.996628,143.46367 51.563998,144.99283 C 63.131367,146.52214 59.478507,146.98079 62.218151,147.5925 C 64.957795,148.20435 60.696124,155.69728 60.696124,155.69728 C 60.696124,155.69728 56.434463,161.96706 52.477201,171.14225 C 48.519957,180.31755 46.541327,185.51684 44.106091,192.24526 C 41.670861,198.97391 40.757634,202.18516 40.605444,207.99616 C 40.453239,213.80717 40.301033,214.4188 40.757634,215.64223 C 41.214243,216.86533 42.127446,215.64223 42.584066,214.72458 C 43.040681,213.80717 44.410498,204.78484 45.780318,202.18516 C 47.150127,199.58532 48.672148,197.75041 48.672148,197.75041 C 48.672148,197.75041 48.215545,199.89131 48.367744,203.40862 C 48.519957,206.92573 50.34638,224.81737 50.955175,232.1576 C 51.563998,239.49779 54.151435,250.96669 55.064654,252.34311 C 55.977857,253.71937 54.912444,241.6387 54.912444,241.6387 C 54.912444,241.6387 53.999231,221.75902 56.738868,211.36039 C 59.478507,200.96178 62.218151,188.42226 70.741459,174.35369 C 79.264788,160.28485 85.352882,153.40341 87.940316,152.02715 C 90.527743,150.65103 102.55172,153.09767 102.55172,153.09767 C 102.55172,153.09767 106.96558,153.86223 108.03102,155.39157 C 106.02853,156.72331 103.219,159.4466 101.0297,161.81421 C 97.12154,166.0428 93.87619,174.20071 93.267393,177.41198 C 92.658586,180.62336 91.288759,197.75041 91.288759,197.75041 L 91.136566,220.07688 C 91.136566,220.07688 91.288759,248.97883 98.442251,271.30523 C 105.59576,293.63166 105.29135,291.94947 115.18453,314.12285 C 122.54449,327.44459 118.7484,320.20918 127.12251,332.4782 C 127.12251,332.4782 120.85287,331.96219 112.02514,329.05684 C 103.19744,326.15124 96.615834,321.46319 96.615834,321.46319 C 96.615834,321.46319 87.331517,313.66411 82.765449,308.92366 C 78.199378,304.18314 73.767063,299.56929 73.767063,299.56929 C 73.767063,299.56929 75.003122,302.65401 79.264788,308.31204 C 83.526453,313.97017 88.853519,318.71057 93.419599,322.83948 C 97.98566,326.9684 103.92154,329.72101 112.9015,333.69682 C 121.88132,337.67283 123.5937,336.02888 142.27652,336.29647 C 160.95926,336.56408 163.87649,336.92534 187.63277,334.76734 C 215.33357,332.24408 236.83211,328.15345 248.43741,324.29224 C 245.96416,324.33042 238.39219,325.9744 235.57639,326.35662 C 229.69403,327.15548 228.42289,325.74505 228.42289,325.74505 C 228.42289,325.74505 233.12257,322.03345 236.48963,312.89979 C 241.05572,300.51309 241.67107,298.85668 243.7954,287.51481 C 245.84542,276.56892 246.07837,268.70539 245.92626,258.15411 C 245.77399,247.60254 245.46964,239.95655 243.7954,229.86377 C 242.12104,219.7711 241.20797,213.19544 239.22926,207.2316 C 237.25065,201.2676 235.5764,197.59757 235.5764,197.59757 C 235.5764,197.59757 241.20797,199.89131 252.01425,207.38448 C 262.82056,214.87759 264.38068,218.16527 269.21307,221.22376 C 270.24049,220.61202 270.25946,219.67544 270.20246,218.7006 z " id="path14839" sodipodi:nodetypes="csscssssssscsssssscssscssscccsccsccscscssssscscssssscscc"/>
  <path style="fill:url(#linearGradient17786);fill-opacity:1;fill-rule:evenodd;stroke:none;stroke-width:1px;stroke-linecap:butt;stroke-linejoin:miter;stroke-opacity:1" d="M 122.94679,160.59048 C 126.40948,159.78784 132.15512,161.20242 143.6463,163.64918 C 160.76369,167.29386 164.99255,168.69554 187.17623,176.80037 C 209.35959,184.90515 204.413,182.53497 221.87828,191.78653 C 226.55844,210.5193 225.55304,205.99235 229.03164,220.22983 C 231.61909,230.81962 233.96184,241.07932 235.42416,255.86021 C 236.68004,268.55275 235.86258,273.00868 233.44548,284.76231 C 230.84501,297.40858 227.33537,304.64332 223.40027,314.27587 C 220.16305,322.20046 210.00647,327.58001 210.00647,327.58001 C 210.00647,327.58001 200.95049,328.76504 185.34976,330.02671 C 162.7296,332.79031 147.75017,334.58788 139.68909,332.77931 C 131.94182,331.04135 127.17044,320.3163 123.86,313.35844 C 118.35575,301.78947 112.81143,288.61306 106.05234,253.71937 C 102.82715,237.06907 100.8789,212.03006 102.85614,194.38611 C 104.08486,183.42164 104.60646,180.35576 110.00958,171.44787 C 114.28042,164.40726 116.39094,162.11087 122.94679,160.59048 z " id="path15810" sodipodi:nodetypes="csscssssccssssss"/>
  <path style="fill:#000000;fill-opacity:1;fill-rule:evenodd;stroke:none;stroke-width:1px;stroke-linecap:butt;stroke-linejoin:miter;stroke-opacity:1" d="M 95.093806,130.61833 C 109.81935,134.82365 114.88008,136.16168 139.9937,143.46367 C 165.10677,150.7656 195.54707,159.82605 195.54707,159.82605 L 205.44029,164.87251 C 208.55047,166.97748 203.75105,165.00728 182.76223,159.06166 C 165.41117,153.51817 162.67154,152.94477 135.42736,144.99283 C 113.60205,138.62265 119.17981,139.79367 95.24602,133.218 C 78.47144,128.60934 75.307531,127.7128 75.307531,127.7128 L 51.716201,124.34852 C 51.716201,124.34852 73.823568,124.84558 81.091222,126.64236 C 88.35887,128.43921 80.368254,126.41301 95.093806,130.61833 z " id="path13856" sodipodi:nodetypes="cscccssccss"/>
  <path style="fill:#000000;fill-opacity:1;fill-rule:evenodd;stroke:none;stroke-width:1px;stroke-linecap:butt;stroke-linejoin:miter;stroke-opacity:1" d="M 10,56.60985 C 95.698003,100.22627 38.066534,68.26955 105.99987,105.91762 C 155.0425,133.53106 202.97139,163.0063 252.58272,189.61108 C 262.0787,194.62901 267.48782,198.05107 275.82934,203.0194 C 289.25266,210.35015 290.48984,213.40482 292.83393,210.80486 C 301.83625,202.4342 299.4237,206.98872 294.77103,214.91384 C 291.31735,220.79638 294.67136,218.41286 273.67678,206.91207 C 260.07526,199.46136 290.73603,216.94553 226.53776,179.44691 C 217.47561,174.15383 200.00511,163.74192 172.29575,147.87249 C 95.382308,102.70787 95.117218,103.1848 10,56.60985 z " id="path11906" sodipodi:nodetypes="cccccssscc"/>
  <path style="fill:#61abaa;fill-opacity:1;fill-rule:evenodd;stroke:none;stroke-width:1px;stroke-linecap:butt;stroke-linejoin:miter;stroke-opacity:1" d="M 138.28683,322.39622 C 135.76927,318.37125 135.79535,312.4232 135.70388,309.09609 C 135.46258,300.30525 136.60172,294.28274 141.08498,288.22683 C 145.2662,282.57915 144.07002,282.27957 160.24197,288.55111 C 172.4408,290.94713 176.00438,290.92198 189.62311,288.11851 C 193.09545,282.97091 200.49081,276.57921 211.14774,281.73897 C 216.64725,288.05559 218.36334,290.45877 221.3181,298.33709 C 222.89245,305.53373 222.96031,309.85744 223.23682,314.72058 C 221.98833,318.06815 219.69102,324.60719 217.31606,326.3445 C 211.94771,331.91495 182.46561,333.72869 163.90103,333.96609 C 158.33027,333.93492 148.98055,333.97062 146.94965,333.36105 C 142.60424,332.05704 141.2737,327.17131 138.28683,322.39622 z " id="path10935" sodipodi:nodetypes="csscccccccss"/>
  <path style="fill:#d9ebeb;fill-opacity:1;fill-rule:evenodd;stroke:none;stroke-width:1px;stroke-linecap:butt;stroke-linejoin:miter;stroke-opacity:1" d="M 205.76671,230.58195 C 208.62067,245.16632 227.35866,240.58544 216.52204,228.87223 C 212.91703,225.62422 206.74708,224.48355 205.76671,230.58195 z " id="path3158" sodipodi:nodetypes="ccc"/>
  <path style="fill:#e3e9e7;fill-opacity:1;fill-rule:evenodd;stroke:none;stroke-width:1px;stroke-linecap:butt;stroke-linejoin:miter;stroke-opacity:1" d="M 208.45753,277.44093 C 207.93185,282.7269 216.2627,295.74706 222.28307,301.05071 C 226.01957,304.3427 230.60272,304.07127 233.14572,299.28557 C 237.012,292.01046 237.70548,288.94349 234.46255,283.50866 C 230.20604,276.8528 209.86283,262.8824 208.45753,277.44093 z " id="path8992" sodipodi:nodetypes="csscc"/>
  <path style="fill:#000000;fill-opacity:1;fill-rule:evenodd;stroke:none;stroke-width:1px;stroke-linecap:butt;stroke-linejoin:miter;stroke-opacity:1" d="M 135.27339,226.05153 C 136.62823,237.68837 137.68778,248.9925 141.94591,261.21859 C 143.79331,266.52224 146.39706,270.9151 150.01773,275.08582 C 152.60951,278.07138 161.691,283.39674 168.95944,284.8484 C 175.24247,286.10288 178.7914,285.42795 183.27335,283.62788 C 191.01641,280.51839 193.02677,279.61504 196.51093,275.52976 C 203.33754,267.52439 204.03478,264.08519 206.51989,257.66856 C 205.77704,265.12445 206.14591,274.4974 202.10732,281.07642 C 196.13994,290.79786 187.09512,297.16948 175.76584,297.95084 C 169.29878,298.3971 161.0396,296.00151 157.59462,294.57769 C 147.63758,290.46246 145.35375,288.62394 140.33176,281.07641 C 138.37946,278.14218 135.80923,271.05107 134.95022,262.32799 C 134.09446,253.63178 134.2681,251.04925 134.41236,242.35917 C 134.46148,239.41839 135.16585,230.33562 135.16585,227.38264 C 135.16585,226.7033 135.15005,226.68704 135.27339,226.05153 z " id="path3156" sodipodi:nodetypes="cssssscsssssssc"/>
  <path style="fill:#000000;fill-opacity:1;fill-rule:evenodd;stroke:none;stroke-width:1px;stroke-linecap:butt;stroke-linejoin:miter;stroke-opacity:1" d="M 297.78437,184.96147 C 296.9598,184.03672 296.38526,185.88052 297.35389,187.88106 C 299.74413,192.81721 305.17518,204.57123 305.10287,205.23609 C 305.05037,205.71684 298.38387,221.03472 296.38526,226.75413 C 296.04101,227.73942 296.65436,228.4843 297.78437,227.13268 C 301.80906,222.31867 308.71654,205.72788 308.76193,204.74949 C 308.80092,203.91069 299.88785,187.32026 297.78437,184.96147 z " id="path6057" sodipodi:nodetypes="cssssss"/>
  <path style="fill:url(#linearGradient13844);fill-opacity:1;fill-rule:evenodd;stroke:none;stroke-width:1px;stroke-linecap:butt;stroke-linejoin:miter;stroke-opacity:1" d="M 487.47095,186.19951 C 499.93195,177.92472 510.41212,173.59698 526.31496,165.75742 C 533.24172,162.34286 561.35782,149.7996 565.8442,149.98357 C 569.89483,150.1498 580.34899,154.12726 584.83457,157.85243 C 589.58767,161.79946 593.66735,166.20755 597.39463,172.26971 C 600.34327,177.06509 602.61694,182.37515 604.75585,187.42288 C 609.9821,199.75726 610.77912,212.71461 611.09287,229.25786 C 611.32721,241.60346 611.1384,244.21895 611.11135,254.63701 C 611.09056,262.67452 610.31168,268.46598 607.92596,279.01767 C 606.90682,283.52609 604.05149,291.47409 601.97619,296.50636 C 598.73006,304.37728 596.95574,307.79494 591.55243,316.66432 C 586.14939,325.53372 581.90225,329.74384 580.68624,330.2539 C 579.51244,330.7461 572.2488,330.74186 560.83237,330.48541 C 556.84321,330.39597 552.5374,329.72101 537.39335,327.73299 C 522.24914,325.74505 519.94473,325.38669 509.6193,324.2637 C 500.52939,323.27522 495.84319,322.5147 494.57679,321.50793 C 492.7868,320.08494 489.29115,315.95395 487.77228,311.79199 C 484.64405,303.22064 482.9936,298.77553 481.82872,289.93851 C 480.73843,281.66828 480.29366,276.87698 479.93147,263.27468 C 479.58924,250.41581 479.37779,245.51779 479.62721,236.93522 C 479.95129,225.89724 480.60208,219.53376 481.90263,208.44862 C 482.96587,199.38453 484.11296,194.63819 487.47095,186.19951 z " id="path11879" sodipodi:nodetypes="cssssssssssssssssssssc"/>
  <path style="fill:#d7e9e9;fill-opacity:1;fill-rule:evenodd;stroke:none;stroke-width:1px;stroke-linecap:butt;stroke-linejoin:miter;stroke-opacity:1" d="M 587.11108,207.6456 C 587.82631,206.29402 591.69197,206.49454 594.58939,208.78382 C 597.46627,211.05717 598.75675,215.94846 597.62035,217.31903 C 595.89979,219.39389 591.74839,217.70536 589.31904,215.24143 C 585.76805,211.63995 586.23694,209.29791 587.11108,207.6456 z " id="path13846" sodipodi:nodetypes="cssss"/>
  <path style="fill:#63a7a6;fill-opacity:1;fill-rule:evenodd;stroke:none;stroke-width:1px;stroke-linecap:butt;stroke-linejoin:miter;stroke-opacity:1" d="M 496.99494,311.04246 C 494.38334,304.30018 494.10078,296.8422 496.24148,289.95687 C 498.51844,284.04876 508.62835,278.53855 516.47464,280.22501 C 519.16659,281.79363 522.64602,284.02557 527.02179,286.60481 C 532.64285,289.91847 552.45474,288.58463 560.49261,285.09123 C 564.67215,283.27429 567.81432,282.10838 571.57775,279.36023 C 575.49118,276.50222 575.34648,276.00796 578.68085,275.4673 C 583.17131,274.73922 589.99084,281.81314 591.81095,284.22589 C 593.51603,286.4859 593.38192,296.09651 592.24137,303.90579 C 591.02685,312.22219 589.5738,319.59036 586.77555,324.17879 C 584.8644,327.31271 581.60116,330.14034 580.40864,330.36089 C 578.24719,330.76053 563.61501,330.95115 555.05605,330.06265 C 541.00824,328.42351 530.26484,326.72803 517.46944,325.18905 C 511.99528,324.54037 506.75479,324.03925 502.99488,323.47761 C 500.67497,320.90567 498.2977,314.15286 496.99494,311.04246 z " id="path13850" sodipodi:nodetypes="cccsssssssscccc"/>
  <path style="fill:#000000;fill-opacity:1;fill-rule:evenodd;stroke:none;stroke-width:1px;stroke-linecap:butt;stroke-linejoin:miter;stroke-opacity:1" d="M 509.6944,228.75468 C 508.02235,240.71322 506.51281,249.6536 508.29537,263.14039 C 512.03125,282.66262 522.44187,291.14564 541.98151,292.76839 C 549.29863,293.05678 563.43864,292.98914 572.54638,283.90152 C 578.66779,277.79376 584.29124,268.45508 585.56881,263.68103 C 588.71074,251.94011 588.95969,239.90112 587.93654,227.88956 C 586.93941,236.44495 585.46908,247.60894 582.66304,255.78742 C 576.33459,274.23189 561.43871,281.06663 546.5544,280.90329 C 527.12678,280.68989 516.57431,274.43413 512.06218,258.81512 C 510.78425,251.73108 510.03896,245.05455 509.6944,228.75468 z " id="path14822" sodipodi:nodetypes="cccsscsscc"/>
  <path style="fill:#e4eae8;fill-opacity:1;fill-rule:evenodd;stroke:none;stroke-width:1px;stroke-linecap:butt;stroke-linejoin:miter;stroke-opacity:1" d="M 585.56522,292.48469 C 583.01101,288.62265 578.33566,277.24292 578.33566,272.06989 C 578.33566,265.64205 591.46991,271.78652 594.92575,273.5226 C 601.05148,276.59989 603.75526,279.67624 605.96048,282.69783 C 607.55114,284.87785 609.52936,290.49382 607.40631,294.39625 C 604.65431,299.45434 598.49102,303.9956 596.60002,303.18914 C 591.75904,301.12466 588.59392,297.06411 585.56522,292.48469 z " id="path13848" sodipodi:nodetypes="cssssss"/>
  <path style="fill:#000000;fill-opacity:1;fill-rule:evenodd;stroke:none;stroke-width:1px;stroke-linecap:butt;stroke-linejoin:miter;stroke-opacity:1" d="M 700.55412,48.5 C 663.79722,70.13827 593.46237,112.76017 560.07156,133.67677 C 533.52856,148.49628 524.93346,153.04002 508.47502,161.66121 C 491.73272,171.06583 475.58533,180.57881 457.33505,191.93958 C 450.33375,196.29773 440.28821,203.25558 435.72226,205.24351 C 427.41549,208.86017 425.98795,208.49138 423.24165,208.30196 C 418.76033,207.99305 414.53411,201.21077 408.63021,199.58532 C 407.64085,199.43256 407.03214,200.73248 407.26046,202.0324 C 407.87994,205.55912 410.15235,209.2196 412.43528,213.80717 C 410.30447,212.4308 405.81447,207.61391 401.32455,201.72635 C 396.83452,195.83896 394.39942,192.16891 393.7145,188.88105 C 393.02947,185.59324 395.76929,183.83469 394.93212,182.4584 C 394.09502,181.08219 392.95352,184.06397 392.0403,186.89305 C 390.21923,195.41852 411.62846,215.87958 418.98007,222.98226 C 418.96365,220.45807 417.49755,218.55932 415.93603,215.79514 C 413.72913,211.43686 410.60887,206.39043 411.97872,205.39652 C 413.34851,204.40247 415.93605,208.6078 421.41525,211.81913 C 426.52898,214.81629 430.16696,215.03044 434.50463,212.73668 C 442.92265,208.28518 445.23489,205.39652 457.03048,198.3622 C 468.82617,191.32776 473.11112,188.78713 481.68727,184.59926 C 488.20984,181.41417 511.73131,165.91831 517.30264,162.27285 C 522.99186,158.54999 532.67498,152.6389 543.48126,146.67506 C 554.28764,140.71111 554.21162,141.32267 560.52808,138.41726 C 568.54953,135.23737 576.11596,131.17356 584.27156,128.32446 C 595.68669,124.57798 598.57855,123.43105 614.2554,120.06712 C 629.93219,116.70249 632.51967,115.93798 646.06574,114.56167 C 651.28251,114.13674 653.52035,113.83228 661.89458,112.72653 C 651.62159,112.2633 646.3112,113.10927 634.95478,114.25581 C 620.44203,116.79129 616.31014,117.84972 603.29691,120.52558 C 595.54947,122.47676 584.58129,125.47987 568.4426,132.30044 C 569.96468,130.15953 612.58123,103.32207 647.43555,82.1425 C 680.22408,61.45676 700.89275,50.38852 700.55412,48.5 z " id="path15795" sodipodi:nodetypes="cccssscscssscccsssssssccsccccccc"/>
</svg>